<svg xmlns="http://www.w3.org/2000/svg" xmlns:xlink="http://www.w3.org/1999/xlink" xmlns:lucid="lucid" width="1564.77" height="473"><g transform="translate(-175.23456790123458 -160)" lucid:page-tab-id="0_0"><path d="M0 0h1870.4v1323.2H0z" fill="#fff"/><path d="M559.66 183.17c-1.14.1-2.05.34-2.96.8l-39.44 19.43c-2.16 1.02-3.64 2.84-4.1 5.23l-9.77 43.76c-.47 2.04-.13 4.08 1 5.9.13.23.24.34.47.57l27.28 35c1.48 1.94 3.52 2.97 5.9 2.97h43.9c2.38 0 4.42-1.03 5.9-2.96l27.28-35c1.48-1.94 2.05-4.2 1.48-6.6l-9.77-43.65c-.45-2.4-1.93-4.2-4.1-5.23l-39.43-19.44c-1.25-.57-2.4-.9-3.64-.8z" stroke="#000" stroke-opacity="0" stroke-width="3.83" fill="#326ce5"/><path d="M559.64 180c-1.2.12-2.16.36-3.12.84l-41.64 20.52c-2.28 1.08-3.84 3-4.32 5.52l-10.32 46.2c-.48 2.16-.12 4.32 1.08 6.24.12.24.24.36.48.6l28.8 36.96c1.56 2.04 3.72 3.12 6.24 3.12h46.32c2.52 0 4.68-1.08 6.24-3.12l28.8-36.96c1.56-2.04 2.16-4.44 1.56-6.84l-10.32-46.2c-.48-2.52-2.04-4.44-4.32-5.52l-41.64-20.52c-1.32-.6-2.52-.96-3.84-.84zm0 3.24c1.32-.12 2.4.12 3.6.72l39.6 19.44c2.04 1.08 3.48 2.88 4.08 5.28l9.72 43.68c.48 2.4 0 4.56-1.44 6.48l-27.36 35.04c-1.44 1.92-3.48 3-5.88 3h-43.92c-2.4 0-4.44-1.08-5.88-3l-27.36-35.04c-.12-.12-.24-.36-.36-.6-1.2-1.8-1.56-3.72-1.08-5.88l9.72-43.68c.6-2.4 1.92-4.2 4.08-5.28l39.6-19.44c.96-.48 1.8-.72 2.88-.84z" stroke="#000" stroke-opacity="0" stroke-width="3.83" fill="#fff"/><path d="M531.7 282.07c0 1.36.22 2.36.63 3.02.42.65 1.05.97 1.88.97.6 0 1.1-.16 1.48-.5.4-.32.64-.82.73-1.5l1.68.1c-.13 1-.53 1.78-1.22 2.36-.68.6-1.55.88-2.6.88-1.4 0-2.45-.43-3.18-1.33-.73-.92-1.1-2.23-1.1-3.97 0-1.72.37-3.03 1.1-3.93.74-.9 1.8-1.36 3.16-1.36 1.02 0 1.86.3 2.52.83.67.54 1.1 1.28 1.26 2.23l-1.7.13c-.08-.57-.3-1.03-.64-1.36-.35-.33-.85-.5-1.5-.5-.86 0-1.5.3-1.9.9-.38.6-.57 1.6-.57 3.03zM539.88 287.23v-7.84c0-.73-.02-1.52-.06-2.4h1.56c.05 1.16.07 1.86.07 2.1h.04c.25-.88.56-1.48.9-1.8.34-.33.82-.5 1.44-.5.22 0 .45.05.67.1v1.57c-.2-.06-.5-.1-.86-.1-.7 0-1.2.3-1.57.92-.36.6-.55 1.46-.55 2.6v5.33zM554.5 282.1c0 1.8-.38 3.13-1.15 4-.76.88-1.88 1.32-3.33 1.32-1.44 0-2.53-.46-3.28-1.36-.73-.92-1.1-2.24-1.1-3.96 0-3.53 1.47-5.3 4.44-5.3 1.52 0 2.63.45 3.34 1.3.72.87 1.08 2.2 1.08 4zm-1.73 0c0-1.4-.2-2.43-.62-3.07-.4-.64-1.08-.95-2.04-.95s-1.66.3-2.1.97c-.42.65-.64 1.67-.64 3.05 0 1.35.2 2.37.64 3.05.43.68 1.1 1 2 1 1 0 1.7-.3 2.12-.97.43-.66.65-1.7.65-3.08zM562.86 287.23v-6.5c0-.66-.06-1.18-.2-1.55-.12-.38-.33-.65-.6-.8-.28-.17-.7-.25-1.24-.25-.8 0-1.43.28-1.88.84-.46.56-.7 1.33-.7 2.33v5.93h-1.64v-8.04c0-1.2-.02-1.93-.06-2.2h1.56l.02.26c0 .14 0 .3.02.48l.04 1h.02c.4-.7.82-1.2 1.3-1.48.5-.3 1.13-.44 1.88-.44 1.08 0 1.88.28 2.38.84.5.55.76 1.47.76 2.76v6.8zM567 274.83v-1.62h1.65v1.63zm1.65 13.67c0 .96-.2 1.66-.55 2.1-.37.43-.92.64-1.65.64-.47 0-.86-.03-1.17-.1v-1.3l.57.07c.42 0 .72-.12.9-.33.16-.24.25-.67.25-1.34V277h1.65zM579.57 282.1c0 1.8-.38 3.13-1.14 4-.76.88-1.88 1.32-3.33 1.32-1.45 0-2.54-.46-3.28-1.36-.74-.92-1.1-2.24-1.1-3.96 0-3.53 1.47-5.3 4.44-5.3 1.52 0 2.62.45 3.34 1.3.72.87 1.07 2.2 1.07 4zm-1.72 0c0-1.4-.22-2.43-.62-3.07-.4-.64-1.1-.95-2.04-.95-.98 0-1.68.3-2.1.97-.44.65-.66 1.67-.66 3.05 0 1.35.2 2.37.64 3.05.42.68 1.1 1 2 1 1 0 1.7-.3 2.12-.97.42-.66.65-1.7.65-3.08zM590.02 282.07c0 3.57-1.2 5.34-3.64 5.34-.75 0-1.38-.13-1.9-.4-.47-.28-.88-.74-1.2-1.36 0 .2-.03.5-.05.9l-.05.7h-1.6c.04-.35.06-1.06.06-2.13v-11.9h1.65v4c0 .4-.02.9-.05 1.44h.04c.3-.65.7-1.12 1.2-1.4.5-.3 1.13-.43 1.88-.43 1.25 0 2.17.45 2.76 1.32.6.87.88 2.2.88 3.95zm-1.73.06c0-1.44-.2-2.46-.55-3.07-.38-.63-.97-.94-1.8-.94-.92 0-1.6.33-2.03 1-.42.65-.63 1.68-.63 3.1 0 1.34.2 2.34.6 2.98.43.64 1.1.96 2.04.96.83 0 1.43-.32 1.8-.95.37-.63.55-1.65.55-3.07z" stroke="#000" stroke-opacity="0" fill="#fff"/><path d="M567.2 199.1v14.7h14.67v-14.7zm0 21.14v3.73c1.7-.4 3.52-.63 5.33-.63 3.34 0 6.45.7 9.34 2v-5.1zm-41.8.23v14.7h14.65v-14.7zm20.93 0v14.7h6.17c2.04-3.56 4.98-6.54 8.5-8.6v-6.1zm-21.05 21.37v14.7h14.66v-14.7zm20.94 0v14.7h4.75c-1.13-2.8-1.8-5.9-1.8-9.13 0-1.9.28-3.78.67-5.56z" stroke="#000" stroke-opacity="0" stroke-width="3.77" fill="#fff"/><path d="M573.44 226.4c-11.7 0-21.3 9.86-21.3 21.93s9.6 21.94 21.3 21.94c11.7 0 21.28-9.87 21.28-21.94 0-12.07-9.58-21.94-21.28-21.94zm8.94 31.15l-11.07-7.02v-13.17h3.2v11.4l9.58 5.93z" stroke="#000" stroke-opacity="0" stroke-width="1.21" fill="#fff"/><use xlink:href="#a" transform="matrix(1,0,0,1,470,309) translate(-12.222222222222186 17.77777777777778)"/><path d="M279.66 183.17c-1.14.1-2.05.34-2.96.8l-39.44 19.43c-2.16 1.02-3.64 2.84-4.1 5.23l-9.77 43.76c-.47 2.04-.13 4.08 1 5.9.13.23.24.34.47.57l27.28 35c1.48 1.94 3.52 2.97 5.9 2.97h43.9c2.38 0 4.42-1.03 5.9-2.96l27.28-35c1.48-1.94 2.05-4.2 1.48-6.6l-9.77-43.65c-.45-2.4-1.93-4.2-4.1-5.23l-39.43-19.44c-1.25-.57-2.4-.9-3.64-.8z" stroke="#000" stroke-opacity="0" stroke-width="3.83" fill="#326ce5"/><path d="M279.64 180c-1.2.12-2.16.36-3.12.84l-41.64 20.52c-2.28 1.08-3.84 3-4.32 5.52l-10.32 46.2c-.48 2.16-.12 4.32 1.08 6.24.12.24.24.36.48.6l28.8 36.96c1.56 2.04 3.72 3.12 6.24 3.12h46.32c2.52 0 4.68-1.08 6.24-3.12l28.8-36.96c1.56-2.04 2.16-4.44 1.56-6.84l-10.32-46.2c-.48-2.52-2.04-4.44-4.32-5.52l-41.64-20.52c-1.32-.6-2.52-.96-3.84-.84zm0 3.24c1.32-.12 2.4.12 3.6.72l39.6 19.44c2.04 1.08 3.48 2.88 4.08 5.28l9.72 43.68c.48 2.4 0 4.56-1.44 6.48l-27.36 35.04c-1.44 1.92-3.48 3-5.88 3h-43.92c-2.4 0-4.44-1.08-5.88-3l-27.36-35.04c-.12-.12-.24-.36-.36-.6-1.2-1.8-1.56-3.72-1.08-5.88l9.72-43.68c.6-2.4 1.92-4.2 4.08-5.28l39.6-19.44c.96-.48 1.8-.72 2.88-.84z" stroke="#000" stroke-opacity="0" stroke-width="3.83" fill="#fff"/><path d="M259.6 285.58c-.3.66-.7 1.12-1.2 1.4-.52.3-1.14.43-1.88.43-1.25 0-2.18-.43-2.77-1.3-.6-.86-.88-2.18-.88-3.94 0-3.57 1.2-5.35 3.65-5.35.75 0 1.37.16 1.88.44.5.28.9.74 1.2 1.35h.02v-5.4h1.63v11.9c0 1.08.03 1.8.06 2.13h-1.57l-.06-.7-.03-.95zm-5-3.48c0 1.44.2 2.46.55 3.07.37.62.96.94 1.8.94.93 0 1.6-.33 2.02-1 .42-.67.64-1.7.64-3.1 0-1.36-.2-2.36-.63-2.98-.42-.63-1.1-.96-2-.96-.84 0-1.44.33-1.82.97-.36.63-.55 1.65-.55 3.07zM265.06 282.48c0 1.16.23 2.08.7 2.7.47.65 1.16.97 2.07.97.7 0 1.3-.15 1.72-.45.43-.3.72-.67.87-1.12l1.45.42c-.6 1.6-1.94 2.42-4.04 2.42-1.47 0-2.6-.45-3.36-1.35-.76-.9-1.14-2.25-1.14-4.02 0-1.68.38-3 1.14-3.9.77-.9 1.87-1.33 3.3-1.33 2.9 0 4.37 1.8 4.37 5.42v.24zm5.37-1.3c-.1-1.1-.35-1.87-.8-2.36-.44-.5-1.07-.74-1.9-.74-.8 0-1.43.27-1.9.82-.47.56-.7 1.3-.75 2.27zM282.63 282.07c0 3.56-1.2 5.35-3.64 5.35-1.54 0-2.57-.6-3.1-1.8h-.04c.03.07.04.6.04 1.63v4h-1.65v-12.17c0-1.05-.03-1.74-.06-2.1h1.6v.3c.03.15.04.38.05.7l.03.66h.03c.3-.62.7-1.08 1.18-1.37.48-.3 1.1-.45 1.9-.45 1.23 0 2.14.42 2.74 1.27.6.83.9 2.15.9 3.97zm-1.73.03c0-1.42-.18-2.44-.55-3.05-.38-.62-.98-.92-1.8-.92-.64 0-1.15.15-1.52.43-.37.28-.65.73-.85 1.33-.2.58-.28 1.38-.28 2.33 0 1.35.2 2.33.62 2.97.4.63 1.1.95 2.03.95.82 0 1.4-.3 1.78-.92.38-.62.57-1.66.57-3.13zM284.7 287.23V273.2h1.65v14.03zM297.26 282.1c0 1.8-.38 3.13-1.14 4-.77.88-1.88 1.32-3.34 1.32-1.44 0-2.53-.46-3.28-1.36-.73-.92-1.1-2.24-1.1-3.96 0-3.53 1.48-5.3 4.45-5.3 1.5 0 2.62.45 3.34 1.3.7.87 1.06 2.2 1.06 4zm-1.73 0c0-1.4-.2-2.43-.62-3.07-.4-.64-1.07-.95-2.03-.95-.96 0-1.66.3-2.1.97-.42.65-.65 1.67-.65 3.05 0 1.35.22 2.37.64 3.05.43.68 1.1 1 2 1 1 0 1.7-.3 2.12-.97.43-.66.65-1.7.65-3.08zM299.8 291.24c-.44 0-.82-.03-1.13-.1v-1.28c.23.04.5.05.77.05 1.03 0 1.84-.77 2.44-2.32l.16-.4L298.1 277h1.76l2.1 5.65c.02.1.06.2.1.32l.42 1.23.37 1.17.64-1.86 2.17-6.5h1.74l-3.8 10.22c-.42 1.1-.8 1.9-1.15 2.44-.36.53-.75.92-1.18 1.18-.43.27-.92.4-1.46.4z" stroke="#000" stroke-opacity="0" fill="#fff"/><path d="M277.07 266.08c-16.25.8-30.07-12.07-30.9-28.78-.9-16.76 11.52-31.1 27.77-32.07 16.25-.97 30.2 11.7 31.25 28.48l-11.7.8c-.65-10.12-9.04-17.8-18.85-17.2-9.8.55-17.3 9.2-16.78 19.33.47 10.12 8.86 17.87 18.67 17.44z" stroke="#000" stroke-opacity="0" stroke-width="3.77" fill="#fff"/><path d="M283.14 233.72l9.3 23.46 21.45-23.46z" stroke="#000" stroke-opacity="0" stroke-width="3.77" fill="#fff"/><use xlink:href="#b" transform="matrix(1,0,0,1,190,309) translate(6.234567901234584 17.77777777777778)"/><path d="M279.66 463.17c-1.14.1-2.05.34-2.96.8l-39.44 19.43c-2.16 1.02-3.64 2.84-4.1 5.23l-9.77 43.76c-.47 2.04-.12 4.08 1 5.9.13.23.24.34.47.57l27.28 35c1.48 1.94 3.52 2.97 5.9 2.97h43.9c2.38 0 4.42-1.03 5.9-2.96l27.28-35c1.48-1.94 2.05-4.22 1.48-6.6l-9.77-43.65c-.45-2.4-1.93-4.2-4.1-5.23l-39.43-19.44c-1.25-.57-2.4-.9-3.64-.8z" stroke="#000" stroke-opacity="0" stroke-width="0" fill="#326ce5"/><path d="M279.64 460c-1.2.12-2.16.36-3.12.84l-41.64 20.52c-2.28 1.08-3.84 3-4.32 5.52l-10.32 46.2c-.48 2.16-.12 4.32 1.08 6.24.12.24.24.36.48.6l28.8 36.96c1.56 2.04 3.72 3.12 6.24 3.12h46.32c2.52 0 4.68-1.08 6.24-3.12l28.8-36.96c1.56-2.04 2.16-4.44 1.56-6.84l-10.32-46.2c-.48-2.52-2.04-4.44-4.32-5.52l-41.64-20.52c-1.32-.6-2.52-.96-3.84-.84zm0 3.12c1.32 0 2.4.24 3.6.84l39.6 19.44c2.04 1.08 3.48 2.88 4.08 5.28l9.72 43.68c.48 2.4 0 4.56-1.44 6.48l-27.36 35.04c-1.44 1.92-3.48 3-5.88 3h-43.92c-2.4 0-4.44-1.08-5.88-3l-27.36-35.04c-.12-.12-.24-.36-.36-.6-1.2-1.8-1.56-3.72-1.08-5.88l9.72-43.68c.6-2.4 1.92-4.2 4.08-5.28l39.6-19.44c.96-.48 1.8-.72 2.88-.84z" stroke="#000" stroke-opacity="0" stroke-width="0" fill="#fff"/><path d="M255.92 502.6l24.08-7.2 24.1 7.2-24.1 7.2zM255.92 505.36v26.4l22.43 12.84.12-32.33zM304.1 505.36v26.4l-22.45 12.84-.12-32.33z" stroke="#000" stroke-opacity="0" fill="#fff"/><use xlink:href="#c" transform="matrix(1,0,0,1,190,589) translate(42.53086419753086 17.77777777777778)"/><path d="M679.66 463.17c-1.14.1-2.05.34-2.96.8l-39.44 19.43c-2.16 1.02-3.64 2.84-4.1 5.23l-9.77 43.76c-.47 2.04-.12 4.08 1 5.9.13.23.24.34.47.57l27.28 35c1.48 1.94 3.52 2.97 5.9 2.97h43.9c2.38 0 4.42-1.03 5.9-2.96l27.28-35c1.48-1.94 2.05-4.22 1.48-6.6l-9.77-43.65c-.45-2.4-1.93-4.2-4.1-5.23l-39.43-19.44c-1.25-.57-2.4-.9-3.64-.8z" stroke="#000" stroke-opacity="0" stroke-width="0" fill="#326ce5"/><path d="M679.64 460c-1.2.12-2.16.36-3.12.84l-41.64 20.52c-2.28 1.08-3.84 3-4.32 5.52l-10.32 46.2c-.48 2.16-.12 4.32 1.08 6.24.12.24.24.36.48.6l28.8 36.96c1.56 2.04 3.72 3.12 6.24 3.12h46.32c2.52 0 4.68-1.08 6.24-3.12l28.8-36.96c1.56-2.04 2.16-4.44 1.56-6.84l-10.32-46.2c-.48-2.52-2.04-4.44-4.32-5.52l-41.64-20.52c-1.32-.6-2.52-.96-3.84-.84zm0 3.12c1.32 0 2.4.24 3.6.84l39.6 19.44c2.04 1.08 3.48 2.88 4.08 5.28l9.72 43.68c.48 2.4 0 4.56-1.44 6.48l-27.36 35.04c-1.44 1.92-3.48 3-5.88 3h-43.92c-2.4 0-4.44-1.08-5.88-3l-27.36-35.04c-.12-.12-.24-.36-.36-.6-1.2-1.8-1.56-3.72-1.08-5.88l9.72-43.68c.6-2.4 1.92-4.2 4.08-5.28l39.6-19.44c.96-.48 1.8-.72 2.88-.84z" stroke="#000" stroke-opacity="0" stroke-width="0" fill="#fff"/><path d="M655.92 502.6l24.08-7.2 24.1 7.2-24.1 7.2zM655.92 505.36v26.4l22.43 12.84.12-32.33zM704.1 505.36v26.4l-22.45 12.84-.12-32.33z" stroke="#000" stroke-opacity="0" fill="#fff"/><use xlink:href="#d" transform="matrix(1,0,0,1,590,589) translate(53.0246913580247 17.77777777777778)"/><path d="M337.84 240h146.82" stroke="#5e5e5e" stroke-width="2" fill="none"/><path d="M337.86 241h-.8l-.45-2h1.26z" fill="#5e5e5e"/><path d="M499.93 240l-14.27 4.64v-9.28z" stroke="#5e5e5e" stroke-width="2" fill="#5e5e5e"/><path d="M560 341v53c0 3.33 2.7 6 6 6h108c3.3 0 6 2.7 6 6v35.53M560 341.03V340" stroke="#5e5e5e" stroke-width="2" fill="none"/><path d="M680 456.8l-4.64-14.27h9.28z" stroke="#5e5e5e" stroke-width="2" fill="#5e5e5e"/><path d="M280 459.03V358.5" stroke="#5e5e5e" stroke-width="2" fill="none"/><path d="M281 460.1l-1.36-.1-.64.1V459h2z" fill="#5e5e5e"/><path d="M280 343.24l4.64 14.26h-9.28z" stroke="#5e5e5e" stroke-width="2" fill="#5e5e5e"/><path d="M1099.66 463.17c-1.14.1-2.05.34-2.96.8l-39.44 19.43c-2.16 1.02-3.64 2.84-4.1 5.23l-9.77 43.76c-.47 2.04-.12 4.08 1 5.9.13.23.24.34.47.57l27.28 35c1.48 1.94 3.52 2.97 5.9 2.97h43.9c2.38 0 4.42-1.03 5.9-2.96l27.28-35c1.48-1.94 2.05-4.22 1.48-6.6l-9.77-43.65c-.45-2.4-1.93-4.2-4.1-5.23l-39.43-19.44c-1.25-.57-2.4-.9-3.64-.8z" stroke="#000" stroke-opacity="0" stroke-width="0" fill="#326ce5"/><path d="M1099.64 460c-1.2.12-2.16.36-3.12.84l-41.64 20.52c-2.28 1.08-3.84 3-4.32 5.52l-10.32 46.2c-.48 2.16-.12 4.32 1.08 6.24.12.24.24.36.48.6l28.8 36.96c1.56 2.04 3.72 3.12 6.24 3.12h46.32c2.52 0 4.68-1.08 6.24-3.12l28.8-36.96c1.56-2.04 2.16-4.44 1.56-6.84l-10.32-46.2c-.48-2.52-2.04-4.44-4.32-5.52l-41.64-20.52c-1.32-.6-2.52-.96-3.84-.84zm0 3.12c1.32 0 2.4.24 3.6.84l39.6 19.44c2.04 1.08 3.48 2.88 4.08 5.28l9.72 43.68c.48 2.4 0 4.56-1.44 6.48l-27.36 35.04c-1.44 1.92-3.48 3-5.88 3h-43.92c-2.4 0-4.44-1.08-5.88-3l-27.36-35.04c-.12-.12-.24-.36-.36-.6-1.2-1.8-1.56-3.72-1.08-5.88l9.72-43.68c.6-2.4 1.92-4.2 4.08-5.28l39.6-19.44c.96-.48 1.8-.72 2.88-.84z" stroke="#000" stroke-opacity="0" stroke-width="0" fill="#fff"/><path d="M1075.92 502.6l24.08-7.2 24.1 7.2-24.1 7.2zM1075.92 505.36v26.4l22.43 12.84.12-32.33zM1124.1 505.36v26.4l-22.45 12.84-.12-32.33z" stroke="#000" stroke-opacity="0" fill="#fff"/><use xlink:href="#e" transform="matrix(1,0,0,1,1010,589) translate(50.58641975308642 17.77777777777778)"/><path d="M1100 459.03V358.5" stroke="#5e5e5e" stroke-width="2" fill="none"/><path d="M1101 460.1l-1.36-.1-.64.1V459h2z" fill="#5e5e5e"/><path d="M1100 343.24l4.64 14.26h-9.28z" stroke="#5e5e5e" stroke-width="2" fill="#5e5e5e"/><path d="M737.84 520H894c3.3 0 6-2.7 6-6v-98c0-3.3 2.7-6 6-6h188c3.3 0 6-2.7 6-6v-45.5" stroke="#5e5e5e" stroke-width="2" fill="none"/><path d="M737.86 521h-.8l-.45-2h1.26z" fill="#5e5e5e"/><path d="M1100 343.24l4.64 14.26h-9.28z" stroke="#5e5e5e" stroke-width="2" fill="#5e5e5e"/><path d="M1659.66 463.17c-1.14.1-2.05.34-2.96.8l-39.44 19.43c-2.16 1.02-3.64 2.84-4.1 5.23l-9.77 43.76c-.47 2.04-.12 4.08 1 5.9.13.23.24.34.47.57l27.28 35c1.48 1.94 3.52 2.97 5.9 2.97h43.9c2.38 0 4.42-1.03 5.9-2.96l27.28-35c1.48-1.94 2.05-4.22 1.48-6.6l-9.77-43.65c-.45-2.4-1.93-4.2-4.1-5.23l-39.43-19.44c-1.25-.57-2.4-.9-3.64-.8z" stroke="#000" stroke-opacity="0" stroke-width="0" fill="#326ce5"/><path d="M1659.64 460c-1.2.12-2.16.36-3.12.84l-41.64 20.52c-2.28 1.08-3.84 3-4.32 5.52l-10.32 46.2c-.48 2.16-.12 4.32 1.08 6.24.12.24.24.36.48.6l28.8 36.96c1.56 2.04 3.72 3.12 6.24 3.12h46.32c2.52 0 4.68-1.08 6.24-3.12l28.8-36.96c1.56-2.04 2.16-4.44 1.56-6.84l-10.32-46.2c-.48-2.52-2.04-4.44-4.32-5.52l-41.64-20.52c-1.32-.6-2.52-.96-3.84-.84zm0 3.12c1.32 0 2.4.24 3.6.84l39.6 19.44c2.04 1.08 3.48 2.88 4.08 5.28l9.72 43.68c.48 2.4 0 4.56-1.44 6.48l-27.36 35.04c-1.44 1.92-3.48 3-5.88 3h-43.92c-2.4 0-4.44-1.08-5.88-3l-27.36-35.04c-.12-.12-.24-.36-.36-.6-1.2-1.8-1.56-3.72-1.08-5.88l9.72-43.68c.6-2.4 1.92-4.2 4.08-5.28l39.6-19.44c.96-.48 1.8-.72 2.88-.84z" stroke="#000" stroke-opacity="0" stroke-width="0" fill="#fff"/><path d="M1635.92 502.6l24.08-7.2 24.1 7.2-24.1 7.2zM1635.92 505.36v26.4l22.43 12.84.12-32.33zM1684.1 505.36v26.4l-22.45 12.84-.12-32.33z" stroke="#000" stroke-opacity="0" fill="#fff"/><use xlink:href="#f" transform="matrix(1,0,0,1,1570,589) translate(67.19135802469137 17.77777777777778)"/><path d="M1379.66 463.17c-1.14.1-2.05.34-2.96.8l-39.44 19.43c-2.16 1.02-3.64 2.84-4.1 5.23l-9.77 43.76c-.47 2.04-.12 4.08 1 5.9.13.23.24.34.47.57l27.28 35c1.48 1.94 3.52 2.97 5.9 2.97h43.9c2.38 0 4.42-1.03 5.9-2.96l27.28-35c1.48-1.94 2.05-4.22 1.48-6.6l-9.77-43.65c-.45-2.4-1.93-4.2-4.1-5.23l-39.43-19.44c-1.25-.57-2.4-.9-3.64-.8z" stroke="#000" stroke-opacity="0" stroke-width="0" fill="#326ce5"/><path d="M1379.64 460c-1.2.12-2.16.36-3.12.84l-41.64 20.52c-2.28 1.08-3.84 3-4.32 5.52l-10.32 46.2c-.48 2.16-.12 4.32 1.08 6.24.12.24.24.36.48.6l28.8 36.96c1.56 2.04 3.72 3.12 6.24 3.12h46.32c2.52 0 4.68-1.08 6.24-3.12l28.8-36.96c1.56-2.04 2.16-4.44 1.56-6.84l-10.32-46.2c-.48-2.52-2.04-4.44-4.32-5.52l-41.64-20.52c-1.32-.6-2.52-.96-3.84-.84zm0 3.12c1.32 0 2.4.24 3.6.84l39.6 19.44c2.04 1.08 3.48 2.88 4.08 5.28l9.72 43.68c.48 2.4 0 4.56-1.44 6.48l-27.36 35.04c-1.44 1.92-3.48 3-5.88 3h-43.92c-2.4 0-4.44-1.08-5.88-3l-27.36-35.04c-.12-.12-.24-.36-.36-.6-1.2-1.8-1.56-3.72-1.08-5.88l9.72-43.68c.6-2.4 1.92-4.2 4.08-5.28l39.6-19.44c.96-.48 1.8-.72 2.88-.84z" stroke="#000" stroke-opacity="0" stroke-width="0" fill="#fff"/><path d="M1355.92 502.6l24.08-7.2 24.1 7.2-24.1 7.2zM1355.92 505.36v26.4l22.43 12.84.12-32.33zM1404.1 505.36v26.4l-22.45 12.84-.12-32.33z" stroke="#000" stroke-opacity="0" fill="#fff"/><use xlink:href="#g" transform="matrix(1,0,0,1,1290,589) translate(31.48148148148148 17.77777777777778)"/><use xlink:href="#h" transform="matrix(1,0,0,1,1290,589) translate(116.48148148148148 17.77777777777778)"/><path d="M1157.84 240H1234c3.3 0 6 2.7 6 6v268c0 3.3 2.7 6 6 6h58.66" stroke="#5e5e5e" stroke-width="2" fill="none"/><path d="M1157.86 241h-.8l-.45-2h1.26z" fill="#5e5e5e"/><path d="M1319.93 520l-14.27 4.64v-9.28z" stroke="#5e5e5e" stroke-width="2" fill="#5e5e5e"/><path d="M1099.66 183.17c-1.14.1-2.05.34-2.96.8l-39.44 19.43c-2.16 1.02-3.64 2.84-4.1 5.23l-9.77 43.76c-.47 2.04-.13 4.08 1 5.9.13.23.24.34.47.57l27.28 35c1.48 1.94 3.52 2.97 5.9 2.97h43.9c2.38 0 4.42-1.03 5.9-2.96l27.28-35c1.48-1.94 2.05-4.2 1.48-6.6l-9.77-43.65c-.45-2.4-1.93-4.2-4.1-5.23l-39.43-19.44c-1.25-.57-2.4-.9-3.64-.8z" stroke="#000" stroke-opacity="0" stroke-width="3.83" fill="#326ce5"/><path d="M1099.64 180c-1.2.12-2.16.36-3.12.84l-41.64 20.52c-2.28 1.08-3.84 3-4.32 5.52l-10.32 46.2c-.48 2.16-.12 4.32 1.08 6.24.12.24.24.36.48.6l28.8 36.96c1.56 2.04 3.72 3.12 6.24 3.12h46.32c2.52 0 4.68-1.08 6.24-3.12l28.8-36.96c1.56-2.04 2.16-4.44 1.56-6.84l-10.32-46.2c-.48-2.52-2.04-4.44-4.32-5.52l-41.64-20.52c-1.32-.6-2.52-.96-3.84-.84zm0 3.24c1.32-.12 2.4.12 3.6.72l39.6 19.44c2.04 1.08 3.48 2.88 4.08 5.28l9.72 43.68c.48 2.4 0 4.56-1.44 6.48l-27.36 35.04c-1.44 1.92-3.48 3-5.88 3h-43.92c-2.4 0-4.44-1.08-5.88-3l-27.36-35.04c-.12-.12-.24-.36-.36-.6-1.2-1.8-1.56-3.72-1.08-5.88l9.72-43.68c.6-2.4 1.92-4.2 4.08-5.28l39.6-19.44c.96-.48 1.8-.72 2.88-.84z" stroke="#000" stroke-opacity="0" stroke-width="3.83" fill="#fff"/><path d="M1079.6 285.58c-.3.66-.7 1.12-1.2 1.4-.52.3-1.14.43-1.88.43-1.25 0-2.18-.43-2.77-1.3-.6-.86-.88-2.18-.88-3.94 0-3.57 1.2-5.35 3.65-5.35.75 0 1.37.16 1.88.44.5.28.9.74 1.2 1.35h.02v-5.4h1.63v11.9c0 1.08.03 1.8.06 2.13h-1.57l-.06-.7-.03-.95zm-5-3.48c0 1.44.2 2.46.55 3.07.37.62.96.94 1.8.94.93 0 1.6-.33 2.02-1 .42-.67.64-1.7.64-3.1 0-1.36-.2-2.36-.63-2.98-.42-.63-1.1-.96-2-.96-.84 0-1.44.33-1.82.97-.36.63-.55 1.65-.55 3.07zM1085.06 282.48c0 1.16.23 2.08.7 2.7.47.65 1.16.97 2.07.97.7 0 1.3-.15 1.72-.45.43-.3.72-.67.87-1.12l1.45.42c-.6 1.6-1.94 2.42-4.04 2.42-1.47 0-2.6-.45-3.36-1.35-.76-.9-1.14-2.25-1.14-4.02 0-1.68.38-3 1.14-3.9.77-.9 1.87-1.33 3.3-1.33 2.9 0 4.37 1.8 4.37 5.42v.24zm5.37-1.3c-.1-1.1-.35-1.87-.8-2.36-.44-.5-1.07-.74-1.9-.74-.8 0-1.43.27-1.9.82-.47.56-.7 1.3-.75 2.27zM1102.63 282.07c0 3.56-1.2 5.35-3.64 5.35-1.54 0-2.57-.6-3.1-1.8h-.04c.03.07.04.6.04 1.63v4h-1.65v-12.17c0-1.05-.03-1.74-.06-2.1h1.6v.3c.03.15.04.38.05.7l.03.66h.03c.3-.62.7-1.08 1.18-1.37.48-.3 1.1-.45 1.9-.45 1.23 0 2.14.42 2.74 1.27.6.83.9 2.15.9 3.97zm-1.73.03c0-1.42-.18-2.44-.55-3.05-.38-.62-.98-.92-1.8-.92-.64 0-1.15.15-1.52.43-.37.28-.65.73-.85 1.33-.2.58-.28 1.38-.28 2.33 0 1.35.2 2.33.62 2.97.4.63 1.1.95 2.03.95.82 0 1.4-.3 1.78-.92.38-.62.57-1.66.57-3.13zM1104.7 287.23V273.2h1.65v14.03zM1117.26 282.1c0 1.8-.38 3.13-1.14 4-.77.88-1.88 1.32-3.34 1.32-1.44 0-2.53-.46-3.28-1.36-.73-.92-1.1-2.24-1.1-3.96 0-3.53 1.48-5.3 4.45-5.3 1.5 0 2.62.45 3.34 1.3.7.87 1.06 2.2 1.06 4zm-1.73 0c0-1.4-.2-2.43-.62-3.07-.4-.64-1.07-.95-2.03-.95-.96 0-1.66.3-2.1.97-.42.65-.65 1.67-.65 3.05 0 1.35.22 2.37.64 3.05.43.68 1.1 1 2 1 1 0 1.7-.3 2.12-.97.43-.66.65-1.7.65-3.08zM1119.8 291.24c-.44 0-.82-.03-1.13-.1v-1.28c.23.04.5.05.77.05 1.03 0 1.84-.77 2.44-2.32l.16-.4-3.94-10.18h1.76l2.1 5.65c.02.1.06.2.1.32l.42 1.23.37 1.17.64-1.86 2.17-6.5h1.74l-3.8 10.22c-.42 1.1-.8 1.9-1.15 2.44-.36.53-.75.92-1.18 1.18-.43.27-.92.4-1.46.4z" stroke="#000" stroke-opacity="0" fill="#fff"/><path d="M1097.07 266.08c-16.25.8-30.07-12.07-30.9-28.78-.9-16.76 11.52-31.1 27.77-32.07 16.25-.97 30.2 11.7 31.25 28.48l-11.7.8c-.65-10.12-9.04-17.8-18.85-17.2-9.8.55-17.3 9.2-16.78 19.33.47 10.12 8.86 17.87 18.67 17.44z" stroke="#000" stroke-opacity="0" stroke-width="3.77" fill="#fff"/><path d="M1103.14 233.72l9.3 23.46 21.45-23.46z" stroke="#000" stroke-opacity="0" stroke-width="3.77" fill="#fff"/><use xlink:href="#i" transform="matrix(1,0,0,1,1010,309) translate(11.20370370370371 17.77777777777778)"/><path d="M1379.66 183.17c-1.14.1-2.05.34-2.96.8l-39.44 19.43c-2.16 1.02-3.64 2.84-4.1 5.23l-9.77 43.76c-.47 2.04-.13 4.08 1 5.9.13.23.24.34.47.57l27.28 35c1.48 1.94 3.52 2.97 5.9 2.97h43.9c2.38 0 4.42-1.03 5.9-2.96l27.28-35c1.48-1.94 2.05-4.2 1.48-6.6l-9.77-43.65c-.45-2.4-1.93-4.2-4.1-5.23l-39.43-19.44c-1.25-.57-2.4-.9-3.64-.8z" stroke="#000" stroke-opacity="0" stroke-width="3.83" fill="#326ce5"/><path d="M1379.64 180c-1.2.12-2.16.36-3.12.84l-41.64 20.52c-2.28 1.08-3.84 3-4.32 5.52l-10.32 46.2c-.48 2.16-.12 4.32 1.08 6.24.12.24.24.36.48.6l28.8 36.96c1.56 2.04 3.72 3.12 6.24 3.12h46.32c2.52 0 4.68-1.08 6.24-3.12l28.8-36.96c1.56-2.04 2.16-4.44 1.56-6.84l-10.32-46.2c-.48-2.52-2.04-4.44-4.32-5.52l-41.64-20.52c-1.32-.6-2.52-.96-3.84-.84zm0 3.24c1.32-.12 2.4.12 3.6.72l39.6 19.44c2.04 1.08 3.48 2.88 4.08 5.28l9.72 43.68c.48 2.4 0 4.56-1.44 6.48l-27.36 35.04c-1.44 1.92-3.48 3-5.88 3h-43.92c-2.4 0-4.44-1.08-5.88-3l-27.36-35.04c-.12-.12-.24-.36-.36-.6-1.2-1.8-1.56-3.72-1.08-5.88l9.72-43.68c.6-2.4 1.92-4.2 4.08-5.28l39.6-19.44c.96-.48 1.8-.72 2.88-.84z" stroke="#000" stroke-opacity="0" stroke-width="3.83" fill="#fff"/><path d="M1359.6 285.58c-.3.66-.7 1.12-1.2 1.4-.52.3-1.14.43-1.88.43-1.25 0-2.18-.43-2.77-1.3-.6-.86-.88-2.18-.88-3.94 0-3.57 1.2-5.35 3.65-5.35.75 0 1.37.16 1.88.44.5.28.9.74 1.2 1.35h.02v-5.4h1.63v11.9c0 1.08.03 1.8.06 2.13h-1.57l-.06-.7-.03-.95zm-5-3.48c0 1.44.2 2.46.55 3.07.37.62.96.94 1.8.94.93 0 1.6-.33 2.02-1 .42-.67.64-1.7.64-3.1 0-1.36-.2-2.36-.63-2.98-.42-.63-1.1-.96-2-.96-.84 0-1.44.33-1.82.97-.36.63-.55 1.65-.55 3.07zM1365.06 282.48c0 1.16.23 2.08.7 2.7.47.65 1.16.97 2.07.97.7 0 1.3-.15 1.72-.45.43-.3.72-.67.87-1.12l1.45.42c-.6 1.6-1.94 2.42-4.04 2.42-1.47 0-2.6-.45-3.36-1.35-.76-.9-1.14-2.25-1.14-4.02 0-1.68.38-3 1.14-3.9.77-.9 1.87-1.33 3.3-1.33 2.9 0 4.37 1.8 4.37 5.42v.24zm5.37-1.3c-.1-1.1-.35-1.87-.8-2.36-.44-.5-1.07-.74-1.9-.74-.8 0-1.43.27-1.9.82-.47.56-.7 1.3-.75 2.27zM1382.63 282.07c0 3.56-1.2 5.35-3.64 5.35-1.54 0-2.57-.6-3.1-1.8h-.04c.03.07.04.6.04 1.63v4h-1.65v-12.17c0-1.05-.03-1.74-.06-2.1h1.6v.3c.03.15.04.38.05.7l.03.66h.03c.3-.62.7-1.08 1.18-1.37.48-.3 1.1-.45 1.9-.45 1.23 0 2.14.42 2.74 1.27.6.83.9 2.15.9 3.97zm-1.73.03c0-1.42-.18-2.44-.55-3.05-.38-.62-.98-.92-1.8-.92-.64 0-1.15.15-1.52.43-.37.28-.65.73-.85 1.33-.2.58-.28 1.38-.28 2.33 0 1.35.2 2.33.62 2.97.4.63 1.1.95 2.03.95.82 0 1.4-.3 1.78-.92.38-.62.57-1.66.57-3.13zM1384.7 287.23V273.2h1.65v14.03zM1397.26 282.1c0 1.8-.38 3.13-1.14 4-.77.88-1.88 1.32-3.34 1.32-1.44 0-2.53-.46-3.28-1.36-.73-.92-1.1-2.24-1.1-3.96 0-3.53 1.48-5.3 4.45-5.3 1.5 0 2.62.45 3.34 1.3.7.87 1.06 2.2 1.06 4zm-1.73 0c0-1.4-.2-2.43-.62-3.07-.4-.64-1.07-.95-2.03-.95-.96 0-1.66.3-2.1.97-.42.65-.65 1.67-.65 3.05 0 1.35.22 2.37.64 3.05.43.68 1.1 1 2 1 1 0 1.7-.3 2.12-.97.43-.66.65-1.7.65-3.08zM1399.8 291.24c-.44 0-.82-.03-1.13-.1v-1.28c.23.04.5.05.77.05 1.03 0 1.84-.77 2.44-2.32l.16-.4-3.94-10.18h1.76l2.1 5.65c.02.1.06.2.1.32l.42 1.23.37 1.17.64-1.86 2.17-6.5h1.74l-3.8 10.22c-.42 1.1-.8 1.9-1.15 2.44-.36.53-.75.92-1.18 1.18-.43.27-.92.4-1.46.4z" stroke="#000" stroke-opacity="0" fill="#fff"/><path d="M1377.07 266.08c-16.25.8-30.07-12.07-30.9-28.78-.9-16.76 11.52-31.1 27.77-32.07 16.25-.97 30.2 11.7 31.25 28.48l-11.7.8c-.65-10.12-9.04-17.8-18.85-17.2-9.8.55-17.3 9.2-16.78 19.33.47 10.12 8.86 17.87 18.67 17.44z" stroke="#000" stroke-opacity="0" stroke-width="3.77" fill="#fff"/><path d="M1383.14 233.72l9.3 23.46 21.45-23.46z" stroke="#000" stroke-opacity="0" stroke-width="3.77" fill="#fff"/><use xlink:href="#j" transform="matrix(1,0,0,1,1290,309) translate(33.919753086419746 17.77777777777778)"/><path d="M1380 459.03V358.5" stroke="#5e5e5e" stroke-width="2" fill="none"/><path d="M1381 460.1l-1.36-.1-.64.1V459h2z" fill="#5e5e5e"/><path d="M1380 343.24l4.64 14.26h-9.28z" stroke="#5e5e5e" stroke-width="2" fill="#5e5e5e"/><path d="M1659.66 183.17c-1.14.1-2.05.34-2.96.8l-39.44 19.43c-2.16 1.02-3.64 2.84-4.1 5.23l-9.77 43.76c-.47 2.04-.13 4.08 1 5.9.13.23.24.34.47.57l27.28 35c1.48 1.94 3.52 2.97 5.9 2.97h43.9c2.38 0 4.42-1.03 5.9-2.96l27.28-35c1.48-1.94 2.05-4.2 1.48-6.6l-9.77-43.65c-.45-2.4-1.93-4.2-4.1-5.23l-39.43-19.44c-1.25-.57-2.4-.9-3.64-.8z" stroke="#000" stroke-opacity="0" stroke-width="3.83" fill="#326ce5"/><path d="M1659.64 180c-1.2.12-2.16.36-3.12.84l-41.64 20.52c-2.28 1.08-3.84 3-4.32 5.52l-10.32 46.2c-.48 2.16-.12 4.32 1.08 6.24.12.24.24.36.48.6l28.8 36.96c1.56 2.04 3.72 3.12 6.24 3.12h46.32c2.52 0 4.68-1.08 6.24-3.12l28.8-36.96c1.56-2.04 2.16-4.44 1.56-6.84l-10.32-46.2c-.48-2.52-2.04-4.44-4.32-5.52l-41.64-20.52c-1.32-.6-2.52-.96-3.84-.84zm0 3.24c1.32-.12 2.4.12 3.6.72l39.6 19.44c2.04 1.08 3.48 2.88 4.08 5.28l9.72 43.68c.48 2.4 0 4.56-1.44 6.48l-27.36 35.04c-1.44 1.92-3.48 3-5.88 3h-43.92c-2.4 0-4.44-1.08-5.88-3l-27.36-35.04c-.12-.12-.24-.36-.36-.6-1.2-1.8-1.56-3.72-1.08-5.88l9.72-43.68c.6-2.4 1.92-4.2 4.08-5.28l39.6-19.44c.96-.48 1.8-.72 2.88-.84z" stroke="#000" stroke-opacity="0" stroke-width="3.83" fill="#fff"/><path d="M1649.52 274.83v-1.62h1.65v1.63zm1.65 13.67c0 .96-.18 1.66-.55 2.1-.37.43-.92.64-1.65.64-.47 0-.86-.03-1.16-.1v-1.3l.57.07c.42 0 .72-.12.9-.33.16-.24.25-.67.25-1.34V277h1.65zM1662.1 282.1c0 1.8-.4 3.13-1.15 4-.76.88-1.88 1.32-3.33 1.32-1.45 0-2.54-.46-3.28-1.36-.74-.92-1.1-2.24-1.1-3.96 0-3.53 1.47-5.3 4.44-5.3 1.52 0 2.62.45 3.34 1.3.72.87 1.07 2.2 1.07 4zm-1.73 0c0-1.4-.22-2.43-.62-3.07-.4-.64-1.1-.95-2.04-.95-.96 0-1.66.3-2.1.97-.42.65-.64 1.67-.64 3.05 0 1.35.2 2.37.64 3.05.42.68 1.1 1 2 1 1 0 1.7-.3 2.12-.97.42-.66.65-1.7.65-3.08zM1672.54 282.07c0 3.57-1.2 5.34-3.64 5.34-.75 0-1.38-.13-1.9-.4-.48-.28-.88-.74-1.2-1.36 0 .2-.03.5-.05.9l-.05.7h-1.6c.04-.35.06-1.06.06-2.13v-11.9h1.65v4c0 .4 0 .9-.03 1.44h.04c.3-.65.72-1.12 1.2-1.4.52-.3 1.15-.43 1.9-.43 1.25 0 2.17.45 2.76 1.32.6.87.88 2.2.88 3.95zm-1.73.06c0-1.44-.17-2.46-.54-3.07-.37-.63-.96-.94-1.8-.94-.9 0-1.6.33-2.02 1-.42.65-.63 1.68-.63 3.1 0 1.34.22 2.34.63 2.98.42.64 1.1.96 2.03.96.83 0 1.42-.32 1.8-.95.37-.63.55-1.65.55-3.07z" stroke="#000" stroke-opacity="0" fill="#fff"/><path d="M1631.7 246.54h14.66v14.7h-14.65zM1652.67 246.54h14.66v14.7h-14.66zM1673.64 246.54h14.66v14.7h-14.66zM1673.64 224.94h14.66v14.7h-14.66zM1652.74 225.16h14.65v14.7h-14.66zM1631.84 225.16h14.66v14.7h-14.66zM1673.64 203.8h14.66v14.68h-14.66z" stroke="#000" stroke-opacity="0" stroke-width="3.77" fill="#fff"/><use xlink:href="#k" transform="matrix(1,0,0,1,1570,309) translate(47.5 17.77777777777778)"/><path d="M1437.84 240h146.82" stroke="#5e5e5e" stroke-width="2" fill="none"/><path d="M1437.86 241h-.8l-.45-2h1.26z" fill="#5e5e5e"/><path d="M1599.93 240l-14.27 4.64v-9.28z" stroke="#5e5e5e" stroke-width="2" fill="#5e5e5e"/><path d="M1437.84 240H1504c3.3 0 6 2.7 6 6v128c0 3.3 2.7 6 6 6h138c3.3 0 6 2.7 6 6v55.53" stroke="#5e5e5e" stroke-width="2" fill="none"/><path d="M1437.86 241h-.8l-.45-2h1.26z" fill="#5e5e5e"/><path d="M1660 456.8l-4.64-14.27h9.28z" stroke="#5e5e5e" stroke-width="2" fill="#5e5e5e"/><path d="M779.66 183.17c-1.14.1-2.05.34-2.96.8l-39.44 19.43c-2.16 1.02-3.64 2.84-4.1 5.23l-9.77 43.76c-.47 2.04-.13 4.08 1 5.9.13.23.24.34.47.57l27.28 35c1.48 1.94 3.52 2.97 5.9 2.97h43.9c2.38 0 4.42-1.03 5.9-2.96l27.28-35c1.48-1.94 2.05-4.2 1.48-6.6l-9.77-43.65c-.45-2.4-1.93-4.2-4.1-5.23l-39.43-19.44c-1.25-.57-2.4-.9-3.64-.8z" stroke="#000" stroke-opacity="0" stroke-width="3.83" fill="#326ce5"/><path d="M779.64 180c-1.2.12-2.16.36-3.12.84l-41.64 20.52c-2.28 1.08-3.84 3-4.32 5.52l-10.32 46.2c-.48 2.16-.12 4.32 1.08 6.24.12.24.24.36.48.6l28.8 36.96c1.56 2.04 3.72 3.12 6.24 3.12h46.32c2.52 0 4.68-1.08 6.24-3.12l28.8-36.96c1.56-2.04 2.16-4.44 1.56-6.84l-10.32-46.2c-.48-2.52-2.04-4.44-4.32-5.52l-41.64-20.52c-1.32-.6-2.52-.96-3.84-.84zm0 3.24c1.32-.12 2.4.12 3.6.72l39.6 19.44c2.04 1.08 3.48 2.88 4.08 5.28l9.72 43.68c.48 2.4 0 4.56-1.44 6.48l-27.36 35.04c-1.44 1.92-3.48 3-5.88 3h-43.92c-2.4 0-4.44-1.08-5.88-3l-27.36-35.04c-.12-.12-.24-.36-.36-.6-1.2-1.8-1.56-3.72-1.08-5.88l9.72-43.68c.6-2.4 1.92-4.2 4.08-5.28l39.6-19.44c.96-.48 1.8-.72 2.88-.84z" stroke="#000" stroke-opacity="0" stroke-width="3.83" fill="#fff"/><path d="M751.7 282.07c0 1.36.22 2.36.63 3.02.42.65 1.05.97 1.88.97.6 0 1.1-.16 1.48-.5.4-.32.64-.82.73-1.5l1.68.1c-.13 1-.53 1.78-1.22 2.36-.68.6-1.55.88-2.6.88-1.4 0-2.45-.43-3.18-1.33-.73-.92-1.1-2.23-1.1-3.97 0-1.72.37-3.03 1.1-3.93.74-.9 1.8-1.36 3.16-1.36 1.02 0 1.86.3 2.52.83.67.54 1.1 1.28 1.26 2.23l-1.7.13c-.08-.57-.3-1.03-.64-1.36-.35-.33-.85-.5-1.5-.5-.86 0-1.5.3-1.9.9-.38.6-.57 1.6-.57 3.03zM759.88 287.23v-7.84c0-.73-.02-1.52-.06-2.4h1.56c.05 1.16.07 1.86.07 2.1h.04c.25-.88.56-1.48.9-1.8.34-.33.82-.5 1.44-.5.22 0 .45.05.67.1v1.57c-.2-.06-.5-.1-.86-.1-.7 0-1.2.3-1.57.92-.36.6-.55 1.46-.55 2.6v5.33zM774.5 282.1c0 1.8-.38 3.13-1.15 4-.76.88-1.88 1.32-3.33 1.32-1.44 0-2.53-.46-3.28-1.36-.73-.92-1.1-2.24-1.1-3.96 0-3.53 1.47-5.3 4.44-5.3 1.52 0 2.63.45 3.34 1.3.72.87 1.08 2.2 1.08 4zm-1.73 0c0-1.4-.2-2.43-.62-3.07-.4-.64-1.08-.95-2.04-.95s-1.66.3-2.1.97c-.42.65-.64 1.67-.64 3.05 0 1.35.2 2.37.64 3.05.43.68 1.1 1 2 1 1 0 1.7-.3 2.12-.97.43-.66.65-1.7.65-3.08zM782.86 287.23v-6.5c0-.66-.06-1.18-.2-1.55-.12-.38-.33-.65-.6-.8-.28-.17-.7-.25-1.24-.25-.8 0-1.43.28-1.88.84-.46.56-.7 1.33-.7 2.33v5.93h-1.64v-8.04c0-1.2-.02-1.93-.06-2.2h1.56l.02.26c0 .14 0 .3.02.48l.04 1h.02c.4-.7.82-1.2 1.3-1.48.5-.3 1.13-.44 1.88-.44 1.08 0 1.88.28 2.38.84.5.55.76 1.47.76 2.76v6.8zM787 274.83v-1.62h1.65v1.63zm1.65 13.67c0 .96-.2 1.66-.55 2.1-.37.43-.92.64-1.65.64-.47 0-.86-.03-1.17-.1v-1.3l.57.07c.42 0 .72-.12.9-.33.16-.24.25-.67.25-1.34V277h1.65zM799.57 282.1c0 1.8-.38 3.13-1.14 4-.76.88-1.88 1.32-3.33 1.32-1.45 0-2.54-.46-3.28-1.36-.74-.92-1.1-2.24-1.1-3.96 0-3.53 1.47-5.3 4.44-5.3 1.52 0 2.62.45 3.34 1.3.72.87 1.07 2.2 1.07 4zm-1.72 0c0-1.4-.22-2.43-.62-3.07-.4-.64-1.1-.95-2.04-.95-.98 0-1.68.3-2.1.97-.44.65-.66 1.67-.66 3.05 0 1.35.2 2.37.64 3.05.42.68 1.1 1 2 1 1 0 1.7-.3 2.12-.97.42-.66.65-1.7.65-3.08zM810.02 282.07c0 3.57-1.2 5.34-3.64 5.34-.75 0-1.38-.13-1.9-.4-.47-.28-.88-.74-1.2-1.36 0 .2-.03.5-.05.9l-.05.7h-1.6c.04-.35.06-1.06.06-2.13v-11.9h1.65v4c0 .4-.02.9-.05 1.44h.04c.3-.65.7-1.12 1.2-1.4.5-.3 1.13-.43 1.88-.43 1.25 0 2.17.45 2.76 1.32.6.87.88 2.2.88 3.95zm-1.73.06c0-1.44-.2-2.46-.55-3.07-.38-.63-.97-.94-1.8-.94-.92 0-1.6.33-2.03 1-.42.65-.63 1.68-.63 3.1 0 1.34.2 2.34.6 2.98.43.64 1.1.96 2.04.96.83 0 1.43-.32 1.8-.95.37-.63.55-1.65.55-3.07z" stroke="#000" stroke-opacity="0" fill="#fff"/><path d="M787.2 199.1v14.7h14.67v-14.7zm0 21.14v3.73c1.7-.4 3.52-.63 5.33-.63 3.34 0 6.45.7 9.34 2v-5.1zm-41.8.23v14.7h14.65v-14.7zm20.93 0v14.7h6.17c2.04-3.56 4.98-6.54 8.5-8.6v-6.1zm-21.05 21.37v14.7h14.66v-14.7zm20.94 0v14.7h4.75c-1.13-2.8-1.8-5.9-1.8-9.13 0-1.9.28-3.78.67-5.56z" stroke="#000" stroke-opacity="0" stroke-width="3.77" fill="#fff"/><path d="M793.44 226.4c-11.7 0-21.3 9.86-21.3 21.93s9.6 21.94 21.3 21.94c11.7 0 21.28-9.87 21.28-21.94 0-12.07-9.58-21.94-21.28-21.94zm8.94 31.15l-11.07-7.02v-13.17h3.2v11.4l9.58 5.93z" stroke="#000" stroke-opacity="0" stroke-width="1.21" fill="#fff"/><use xlink:href="#l" transform="matrix(1,0,0,1,690,309) translate(-1.2345679012345556 17.77777777777778)"/><path d="M780 341v53c0 3.33-2.7 6-6 6h-88c-3.3 0-6 2.7-6 6v35.53M780 341.03V340" stroke="#5e5e5e" stroke-width="2" fill="none"/><path d="M680 456.8l-4.64-14.27h9.28z" stroke="#5e5e5e" stroke-width="2" fill="#5e5e5e"/><defs><path fill="#333" d="M114-163C36-179 61-72 57 0H25l-1-190h30c1 12-1 29 2 39 6-27 23-49 58-41v29" id="m"/><path fill="#333" d="M100-194c63 0 86 42 84 106H49c0 40 14 67 53 68 26 1 43-12 49-29l28 8c-11 28-37 45-77 45C44 4 14-33 15-96c1-61 26-98 85-98zm52 81c6-60-76-77-97-28-3 7-6 17-6 28h103" id="n"/><path fill="#333" d="M135-143c-3-34-86-38-87 0 15 53 115 12 119 90S17 21 10-45l28-5c4 36 97 45 98 0-10-56-113-15-118-90-4-57 82-63 122-42 12 7 21 19 24 35" id="o"/><path fill="#333" d="M100-194c62-1 85 37 85 99 1 63-27 99-86 99S16-35 15-95c0-66 28-99 85-99zM99-20c44 1 53-31 53-75 0-43-8-75-51-75s-53 32-53 75 10 74 51 75" id="p"/><path fill="#333" d="M84 4C-5 8 30-112 23-190h32v120c0 31 7 50 39 49 72-2 45-101 50-169h31l1 190h-30c-1-10 1-25-2-33-11 22-28 36-60 37" id="q"/><path fill="#333" d="M96-169c-40 0-48 33-48 73s9 75 48 75c24 0 41-14 43-38l32 2c-6 37-31 61-74 61-59 0-76-41-82-99-10-93 101-131 147-64 4 7 5 14 7 22l-32 3c-4-21-16-35-41-35" id="r"/><path fill="#333" d="M16-82v-28h88v28H16" id="s"/><path fill="#333" d="M210-169c-67 3-38 105-44 169h-31v-121c0-29-5-50-35-48C34-165 62-65 56 0H25l-1-190h30c1 10-1 24 2 32 10-44 99-50 107 0 11-21 27-35 58-36 85-2 47 119 55 194h-31v-121c0-29-5-49-35-48" id="t"/><path fill="#333" d="M117-194c89-4 53 116 60 194h-32v-121c0-31-8-49-39-48C34-167 62-67 57 0H25l-1-190h30c1 10-1 24 2 32 11-22 29-35 61-36" id="u"/><path fill="#333" d="M24-231v-30h32v30H24zM24 0v-190h32V0H24" id="v"/><path fill="#333" d="M59-47c-2 24 18 29 38 22v24C64 9 27 4 27-40v-127H5v-23h24l9-43h21v43h35v23H59v120" id="w"/><path fill="#333" d="M24-231v-30h32v30H24zM-9 49c24 4 33-6 33-30v-209h32V24c2 40-23 58-65 49V49" id="x"/><path fill="#333" d="M115-194c53 0 69 39 70 98 0 66-23 100-70 100C84 3 66-7 56-30L54 0H23l1-261h32v101c10-23 28-34 59-34zm-8 174c40 0 45-34 45-75 0-40-5-75-45-74-42 0-51 32-51 76 0 43 10 73 51 73" id="y"/><g id="a"><use transform="matrix(0.06172839506172839,0,0,0.06172839506172839,0,0)" xlink:href="#m"/><use transform="matrix(0.06172839506172839,0,0,0.06172839506172839,7.345679012345679,0)" xlink:href="#n"/><use transform="matrix(0.06172839506172839,0,0,0.06172839506172839,19.691358024691358,0)" xlink:href="#o"/><use transform="matrix(0.06172839506172839,0,0,0.06172839506172839,30.80246913580247,0)" xlink:href="#p"/><use transform="matrix(0.06172839506172839,0,0,0.06172839506172839,43.148148148148145,0)" xlink:href="#q"/><use transform="matrix(0.06172839506172839,0,0,0.06172839506172839,55.49382716049382,0)" xlink:href="#m"/><use transform="matrix(0.06172839506172839,0,0,0.06172839506172839,62.8395061728395,0)" xlink:href="#r"/><use transform="matrix(0.06172839506172839,0,0,0.06172839506172839,73.9506172839506,0)" xlink:href="#n"/><use transform="matrix(0.06172839506172839,0,0,0.06172839506172839,86.29629629629629,0)" xlink:href="#s"/><use transform="matrix(0.06172839506172839,0,0,0.06172839506172839,93.64197530864197,0)" xlink:href="#t"/><use transform="matrix(0.06172839506172839,0,0,0.06172839506172839,112.09876543209876,0)" xlink:href="#p"/><use transform="matrix(0.06172839506172839,0,0,0.06172839506172839,124.44444444444444,0)" xlink:href="#u"/><use transform="matrix(0.06172839506172839,0,0,0.06172839506172839,136.79012345679013,0)" xlink:href="#v"/><use transform="matrix(0.06172839506172839,0,0,0.06172839506172839,141.66666666666666,0)" xlink:href="#w"/><use transform="matrix(0.06172839506172839,0,0,0.06172839506172839,147.8395061728395,0)" xlink:href="#p"/><use transform="matrix(0.06172839506172839,0,0,0.06172839506172839,160.18518518518516,0)" xlink:href="#m"/><use transform="matrix(0.06172839506172839,0,0,0.06172839506172839,167.53086419753083,0)" xlink:href="#s"/><use transform="matrix(0.06172839506172839,0,0,0.06172839506172839,174.8765432098765,0)" xlink:href="#x"/><use transform="matrix(0.06172839506172839,0,0,0.06172839506172839,179.75308641975303,0)" xlink:href="#p"/><use transform="matrix(0.06172839506172839,0,0,0.06172839506172839,192.0987654320987,0)" xlink:href="#y"/></g><g id="b"><use transform="matrix(0.06172839506172839,0,0,0.06172839506172839,0,0)" xlink:href="#m"/><use transform="matrix(0.06172839506172839,0,0,0.06172839506172839,7.345679012345679,0)" xlink:href="#n"/><use transform="matrix(0.06172839506172839,0,0,0.06172839506172839,19.691358024691358,0)" xlink:href="#o"/><use transform="matrix(0.06172839506172839,0,0,0.06172839506172839,30.80246913580247,0)" xlink:href="#p"/><use transform="matrix(0.06172839506172839,0,0,0.06172839506172839,43.148148148148145,0)" xlink:href="#q"/><use transform="matrix(0.06172839506172839,0,0,0.06172839506172839,55.49382716049382,0)" xlink:href="#m"/><use transform="matrix(0.06172839506172839,0,0,0.06172839506172839,62.8395061728395,0)" xlink:href="#r"/><use transform="matrix(0.06172839506172839,0,0,0.06172839506172839,73.9506172839506,0)" xlink:href="#n"/><use transform="matrix(0.06172839506172839,0,0,0.06172839506172839,86.29629629629629,0)" xlink:href="#s"/><use transform="matrix(0.06172839506172839,0,0,0.06172839506172839,93.64197530864197,0)" xlink:href="#t"/><use transform="matrix(0.06172839506172839,0,0,0.06172839506172839,112.09876543209876,0)" xlink:href="#p"/><use transform="matrix(0.06172839506172839,0,0,0.06172839506172839,124.44444444444444,0)" xlink:href="#u"/><use transform="matrix(0.06172839506172839,0,0,0.06172839506172839,136.79012345679013,0)" xlink:href="#v"/><use transform="matrix(0.06172839506172839,0,0,0.06172839506172839,141.66666666666666,0)" xlink:href="#w"/><use transform="matrix(0.06172839506172839,0,0,0.06172839506172839,147.8395061728395,0)" xlink:href="#p"/><use transform="matrix(0.06172839506172839,0,0,0.06172839506172839,160.18518518518516,0)" xlink:href="#m"/></g><path fill="#333" d="M233-177c-1 41-23 64-60 70L243 0h-38l-65-103H63V0H30v-248c88 3 205-21 203 71zM63-129c60-2 137 13 137-47 0-61-80-42-137-45v92" id="z"/><g id="c"><use transform="matrix(0.06172839506172839,0,0,0.06172839506172839,0,0)" xlink:href="#z"/><use transform="matrix(0.06172839506172839,0,0,0.06172839506172839,15.987654320987653,0)" xlink:href="#n"/><use transform="matrix(0.06172839506172839,0,0,0.06172839506172839,28.333333333333332,0)" xlink:href="#o"/><use transform="matrix(0.06172839506172839,0,0,0.06172839506172839,39.44444444444444,0)" xlink:href="#p"/><use transform="matrix(0.06172839506172839,0,0,0.06172839506172839,51.79012345679012,0)" xlink:href="#q"/><use transform="matrix(0.06172839506172839,0,0,0.06172839506172839,64.1358024691358,0)" xlink:href="#m"/><use transform="matrix(0.06172839506172839,0,0,0.06172839506172839,71.48148148148148,0)" xlink:href="#r"/><use transform="matrix(0.06172839506172839,0,0,0.06172839506172839,82.5925925925926,0)" xlink:href="#n"/></g><path fill="#333" d="M137 0h-34L2-248h35l83 218 83-218h36" id="A"/><g id="d"><use transform="matrix(0.06172839506172839,0,0,0.06172839506172839,0,0)" xlink:href="#A"/><use transform="matrix(0.06172839506172839,0,0,0.06172839506172839,13.580246913580245,0)" xlink:href="#n"/><use transform="matrix(0.06172839506172839,0,0,0.06172839506172839,25.925925925925924,0)" xlink:href="#m"/><use transform="matrix(0.06172839506172839,0,0,0.06172839506172839,33.2716049382716,0)" xlink:href="#o"/><use transform="matrix(0.06172839506172839,0,0,0.06172839506172839,44.38271604938271,0)" xlink:href="#v"/><use transform="matrix(0.06172839506172839,0,0,0.06172839506172839,49.25925925925925,0)" xlink:href="#p"/><use transform="matrix(0.06172839506172839,0,0,0.06172839506172839,61.60493827160493,0)" xlink:href="#u"/></g><path fill="#333" d="M30-248c87 1 191-15 191 75 0 78-77 80-158 76V0H30v-248zm33 125c57 0 124 11 124-50 0-59-68-47-124-48v98" id="B"/><path fill="#333" d="M115-194c55 1 70 41 70 98S169 2 115 4C84 4 66-9 55-30l1 105H24l-1-265h31l2 30c10-21 28-34 59-34zm-8 174c40 0 45-34 45-75s-6-73-45-74c-42 0-51 32-51 76 0 43 10 73 51 73" id="C"/><path fill="#333" d="M24 0v-261h32V0H24" id="D"/><g id="e"><use transform="matrix(0.06172839506172839,0,0,0.06172839506172839,0,0)" xlink:href="#B"/><use transform="matrix(0.06172839506172839,0,0,0.06172839506172839,14.814814814814813,0)" xlink:href="#v"/><use transform="matrix(0.06172839506172839,0,0,0.06172839506172839,19.691358024691354,0)" xlink:href="#C"/><use transform="matrix(0.06172839506172839,0,0,0.06172839506172839,32.03703703703703,0)" xlink:href="#n"/><use transform="matrix(0.06172839506172839,0,0,0.06172839506172839,44.38271604938271,0)" xlink:href="#D"/><use transform="matrix(0.06172839506172839,0,0,0.06172839506172839,49.25925925925925,0)" xlink:href="#v"/><use transform="matrix(0.06172839506172839,0,0,0.06172839506172839,54.1358024691358,0)" xlink:href="#u"/><use transform="matrix(0.06172839506172839,0,0,0.06172839506172839,66.48148148148148,0)" xlink:href="#n"/></g><path fill="#333" d="M127-220V0H93v-220H8v-28h204v28h-85" id="E"/><path fill="#333" d="M141-36C126-15 110 5 73 4 37 3 15-17 15-53c-1-64 63-63 125-63 3-35-9-54-41-54-24 1-41 7-42 31l-33-3c5-37 33-52 76-52 45 0 72 20 72 64v82c-1 20 7 32 28 27v20c-31 9-61-2-59-35zM48-53c0 20 12 33 32 33 41-3 63-29 60-74-43 2-92-5-92 41" id="F"/><path fill="#333" d="M143 0L79-87 56-68V0H24v-261h32v163l83-92h37l-77 82L181 0h-38" id="G"/><g id="f"><use transform="matrix(0.06172839506172839,0,0,0.06172839506172839,0,0)" xlink:href="#E"/><use transform="matrix(0.06172839506172839,0,0,0.06172839506172839,11.049382716049381,0)" xlink:href="#F"/><use transform="matrix(0.06172839506172839,0,0,0.06172839506172839,23.39506172839506,0)" xlink:href="#o"/><use transform="matrix(0.06172839506172839,0,0,0.06172839506172839,34.50617283950617,0)" xlink:href="#G"/></g><g id="g"><use transform="matrix(0.06172839506172839,0,0,0.06172839506172839,0,0)" xlink:href="#B"/><use transform="matrix(0.06172839506172839,0,0,0.06172839506172839,14.814814814814813,0)" xlink:href="#v"/><use transform="matrix(0.06172839506172839,0,0,0.06172839506172839,19.691358024691354,0)" xlink:href="#C"/><use transform="matrix(0.06172839506172839,0,0,0.06172839506172839,32.03703703703703,0)" xlink:href="#n"/><use transform="matrix(0.06172839506172839,0,0,0.06172839506172839,44.38271604938271,0)" xlink:href="#D"/><use transform="matrix(0.06172839506172839,0,0,0.06172839506172839,49.25925925925925,0)" xlink:href="#v"/><use transform="matrix(0.06172839506172839,0,0,0.06172839506172839,54.1358024691358,0)" xlink:href="#u"/><use transform="matrix(0.06172839506172839,0,0,0.06172839506172839,66.48148148148148,0)" xlink:href="#n"/></g><g id="h"><use transform="matrix(0.06172839506172839,0,0,0.06172839506172839,0,0)" xlink:href="#m"/><use transform="matrix(0.06172839506172839,0,0,0.06172839506172839,7.345679012345679,0)" xlink:href="#q"/><use transform="matrix(0.06172839506172839,0,0,0.06172839506172839,19.691358024691358,0)" xlink:href="#u"/></g><g id="i"><use transform="matrix(0.06172839506172839,0,0,0.06172839506172839,0,0)" xlink:href="#C"/><use transform="matrix(0.06172839506172839,0,0,0.06172839506172839,12.345679012345679,0)" xlink:href="#v"/><use transform="matrix(0.06172839506172839,0,0,0.06172839506172839,17.22222222222222,0)" xlink:href="#C"/><use transform="matrix(0.06172839506172839,0,0,0.06172839506172839,29.5679012345679,0)" xlink:href="#n"/><use transform="matrix(0.06172839506172839,0,0,0.06172839506172839,41.913580246913575,0)" xlink:href="#D"/><use transform="matrix(0.06172839506172839,0,0,0.06172839506172839,46.79012345679012,0)" xlink:href="#v"/><use transform="matrix(0.06172839506172839,0,0,0.06172839506172839,51.666666666666664,0)" xlink:href="#u"/><use transform="matrix(0.06172839506172839,0,0,0.06172839506172839,64.01234567901234,0)" xlink:href="#n"/><use transform="matrix(0.06172839506172839,0,0,0.06172839506172839,76.35802469135803,0)" xlink:href="#s"/><use transform="matrix(0.06172839506172839,0,0,0.06172839506172839,83.70370370370371,0)" xlink:href="#t"/><use transform="matrix(0.06172839506172839,0,0,0.06172839506172839,102.1604938271605,0)" xlink:href="#p"/><use transform="matrix(0.06172839506172839,0,0,0.06172839506172839,114.50617283950618,0)" xlink:href="#u"/><use transform="matrix(0.06172839506172839,0,0,0.06172839506172839,126.85185185185188,0)" xlink:href="#v"/><use transform="matrix(0.06172839506172839,0,0,0.06172839506172839,131.7283950617284,0)" xlink:href="#w"/><use transform="matrix(0.06172839506172839,0,0,0.06172839506172839,137.90123456790124,0)" xlink:href="#p"/><use transform="matrix(0.06172839506172839,0,0,0.06172839506172839,150.2469135802469,0)" xlink:href="#m"/></g><g id="j"><use transform="matrix(0.06172839506172839,0,0,0.06172839506172839,0,0)" xlink:href="#w"/><use transform="matrix(0.06172839506172839,0,0,0.06172839506172839,6.172839506172839,0)" xlink:href="#F"/><use transform="matrix(0.06172839506172839,0,0,0.06172839506172839,18.51851851851852,0)" xlink:href="#o"/><use transform="matrix(0.06172839506172839,0,0,0.06172839506172839,29.62962962962963,0)" xlink:href="#G"/><use transform="matrix(0.06172839506172839,0,0,0.06172839506172839,40.74074074074074,0)" xlink:href="#s"/><use transform="matrix(0.06172839506172839,0,0,0.06172839506172839,48.08641975308642,0)" xlink:href="#m"/><use transform="matrix(0.06172839506172839,0,0,0.06172839506172839,55.432098765432094,0)" xlink:href="#q"/><use transform="matrix(0.06172839506172839,0,0,0.06172839506172839,67.77777777777777,0)" xlink:href="#u"/><use transform="matrix(0.06172839506172839,0,0,0.06172839506172839,80.12345679012346,0)" xlink:href="#u"/><use transform="matrix(0.06172839506172839,0,0,0.06172839506172839,92.46913580246914,0)" xlink:href="#n"/><use transform="matrix(0.06172839506172839,0,0,0.06172839506172839,104.81481481481482,0)" xlink:href="#m"/></g><g id="k"><use transform="matrix(0.06172839506172839,0,0,0.06172839506172839,0,0)" xlink:href="#E"/><use transform="matrix(0.06172839506172839,0,0,0.06172839506172839,11.049382716049381,0)" xlink:href="#F"/><use transform="matrix(0.06172839506172839,0,0,0.06172839506172839,23.39506172839506,0)" xlink:href="#o"/><use transform="matrix(0.06172839506172839,0,0,0.06172839506172839,34.50617283950617,0)" xlink:href="#G"/><use transform="matrix(0.06172839506172839,0,0,0.06172839506172839,45.61728395061728,0)" xlink:href="#s"/><use transform="matrix(0.06172839506172839,0,0,0.06172839506172839,52.962962962962955,0)" xlink:href="#m"/><use transform="matrix(0.06172839506172839,0,0,0.06172839506172839,60.30864197530863,0)" xlink:href="#q"/><use transform="matrix(0.06172839506172839,0,0,0.06172839506172839,72.65432098765432,0)" xlink:href="#u"/></g><path fill="#333" d="M206 0h-36l-40-164L89 0H53L-1-190h32L70-26l43-164h34l41 164 42-164h31" id="H"/><path fill="#333" d="M106-169C34-169 62-67 57 0H25v-261h32l-1 103c12-21 28-36 61-36 89 0 53 116 60 194h-32v-121c2-32-8-49-39-48" id="I"/><g id="l"><use transform="matrix(0.06172839506172839,0,0,0.06172839506172839,0,0)" xlink:href="#m"/><use transform="matrix(0.06172839506172839,0,0,0.06172839506172839,7.345679012345679,0)" xlink:href="#n"/><use transform="matrix(0.06172839506172839,0,0,0.06172839506172839,19.691358024691358,0)" xlink:href="#o"/><use transform="matrix(0.06172839506172839,0,0,0.06172839506172839,30.80246913580247,0)" xlink:href="#p"/><use transform="matrix(0.06172839506172839,0,0,0.06172839506172839,43.148148148148145,0)" xlink:href="#q"/><use transform="matrix(0.06172839506172839,0,0,0.06172839506172839,55.49382716049382,0)" xlink:href="#m"/><use transform="matrix(0.06172839506172839,0,0,0.06172839506172839,62.8395061728395,0)" xlink:href="#r"/><use transform="matrix(0.06172839506172839,0,0,0.06172839506172839,73.9506172839506,0)" xlink:href="#n"/><use transform="matrix(0.06172839506172839,0,0,0.06172839506172839,86.29629629629629,0)" xlink:href="#s"/><use transform="matrix(0.06172839506172839,0,0,0.06172839506172839,93.64197530864197,0)" xlink:href="#H"/><use transform="matrix(0.06172839506172839,0,0,0.06172839506172839,109.62962962962963,0)" xlink:href="#n"/><use transform="matrix(0.06172839506172839,0,0,0.06172839506172839,121.97530864197532,0)" xlink:href="#y"/><use transform="matrix(0.06172839506172839,0,0,0.06172839506172839,134.320987654321,0)" xlink:href="#I"/><use transform="matrix(0.06172839506172839,0,0,0.06172839506172839,146.66666666666666,0)" xlink:href="#p"/><use transform="matrix(0.06172839506172839,0,0,0.06172839506172839,159.01234567901233,0)" xlink:href="#p"/><use transform="matrix(0.06172839506172839,0,0,0.06172839506172839,171.358024691358,0)" xlink:href="#G"/></g></defs></g></svg>